<?xml version="1.0" encoding="UTF-8" standalone="no"?>
<!-- Created with Inkscape (http://www.inkscape.org/) -->

<svg
   xmlns:dc="http://purl.org/dc/elements/1.1/"
   xmlns:cc="http://creativecommons.org/ns#"
   xmlns:rdf="http://www.w3.org/1999/02/22-rdf-syntax-ns#"
   xmlns:svg="http://www.w3.org/2000/svg"
   xmlns="http://www.w3.org/2000/svg"
   xmlns:sodipodi="http://sodipodi.sourceforge.net/DTD/sodipodi-0.dtd"
   xmlns:inkscape="http://www.inkscape.org/namespaces/inkscape"
   width="400"
   height="300"
   id="svg2"
   version="1.1"
   inkscape:version="0.48.4 r9939"
   sodipodi:docname="propuesta logos.svg">
  <defs
     id="defs4">
    <inkscape:perspective
       sodipodi:type="inkscape:persp3d"
       inkscape:vp_x="174.17275 : 606.95592 : 1"
       inkscape:vp_y="0 : 821.12673 : 0"
       inkscape:vp_z="642.63049 : 583.81543 : 1"
       inkscape:persp3d-origin="391.45947 : 392.68753 : 1"
       id="perspective3100" />
  </defs>
  <sodipodi:namedview
     id="base"
     pagecolor="#6cacd9"
     bordercolor="#666666"
     borderopacity="1.0"
     inkscape:pageopacity="0"
     inkscape:pageshadow="2"
     inkscape:zoom="0.99"
     inkscape:cx="222.53803"
     inkscape:cy="258.79779"
     inkscape:document-units="px"
     inkscape:current-layer="layer1"
     showgrid="false"
     inkscape:window-width="1366"
     inkscape:window-height="705"
     inkscape:window-x="-8"
     inkscape:window-y="-8"
     inkscape:window-maximized="1" />
  <metadata
     id="metadata7">
    <rdf:RDF>
      <cc:Work
         rdf:about="">
        <dc:format>image/svg+xml</dc:format>
        <dc:type
           rdf:resource="http://purl.org/dc/dcmitype/StillImage" />
        <dc:title></dc:title>
      </cc:Work>
    </rdf:RDF>
  </metadata>
  <g
     inkscape:label="Capa 1"
     inkscape:groupmode="layer"
     id="layer1"
     transform="translate(0,-752.36066)">
    <text
       xml:space="preserve"
       style="font-size:20px;font-style:normal;font-variant:normal;font-weight:normal;font-stretch:normal;line-height:125%;letter-spacing:0px;word-spacing:0px;fill:#000000;fill-opacity:1;stroke:none;font-family:Calibri;-inkscape-font-specification:Sans"
       x="115.56028"
       y="323.65268"
       id="text2985"
       sodipodi:linespacing="125%"><tspan
         sodipodi:role="line"
         id="tspan2987"
         x="115.56028"
         y="323.65268" /></text>
    <text
       xml:space="preserve"
       style="font-size:28px;font-style:normal;font-variant:normal;font-weight:normal;font-stretch:normal;line-height:125%;letter-spacing:0px;word-spacing:0px;fill:#ffffff;fill-opacity:1;stroke:none;font-family:Russo One;-inkscape-font-specification:Russo One"
       x="371.82886"
       y="175.63232"
       id="text3025"
       sodipodi:linespacing="125%"
       inkscape:export-filename="C:\Users\Chejo\Desktop\path3924.png"
       inkscape:export-xdpi="90"
       inkscape:export-ydpi="90"><tspan
         sodipodi:role="line"
         id="tspan3027"
         x="371.82886"
         y="175.63232" /></text>
    <g
       id="g3924"
       transform="matrix(1.0088516,0,0,1.0088516,-5.1347226,22.51306)"
       inkscape:export-filename="C:\Users\Chejo\Documents\GitHub\ProyectoSoftware\PropuestaDiseño\Propuesta de logo I\icono382X125.png"
       inkscape:export-xdpi="90"
       inkscape:export-ydpi="90">
      <g
         transform="translate(-246.46465,648.96279)"
         id="g3046">
        <path
           sodipodi:type="star"
           style="fill:#ffffff;fill-opacity:1;stroke:#ffffff;stroke-width:0;stroke-linejoin:miter;stroke-miterlimit:4;stroke-opacity:1;stroke-dasharray:none"
           id="path3017"
           sodipodi:sides="6"
           sodipodi:cx="277.14285"
           sodipodi:cy="313.31458"
           sodipodi:r1="61.086163"
           sodipodi:r2="52.902168"
           sodipodi:arg1="1.0471976"
           sodipodi:arg2="1.5707963"
           inkscape:flatsided="true"
           inkscape:rounded="0"
           inkscape:randomized="0"
           d="m 307.68593,366.21675 -61.08616,-10e-6 -30.54308,-52.90217 30.54308,-52.90216 61.08617,0 30.54308,52.90217 z"
           transform="matrix(0.56793563,0,0,0.56793563,187.55847,23.111969)"
           inkscape:export-filename="C:\Users\Chejo\Desktop\path3924.png"
           inkscape:export-xdpi="90"
           inkscape:export-ydpi="90" />
        <path
           transform="matrix(0.56793563,0,0,0.56793563,187.55847,-40.697548)"
           d="m 307.68593,366.21675 -61.08616,-10e-6 -30.54308,-52.90217 30.54308,-52.90216 61.08617,0 30.54308,52.90217 z"
           inkscape:randomized="0"
           inkscape:rounded="0"
           inkscape:flatsided="true"
           sodipodi:arg2="1.5707963"
           sodipodi:arg1="1.0471976"
           sodipodi:r2="52.902168"
           sodipodi:r1="61.086163"
           sodipodi:cy="313.31458"
           sodipodi:cx="277.14285"
           sodipodi:sides="6"
           id="path3031"
           style="fill:#ffffff;fill-opacity:1;stroke:#ffffff;stroke-width:0;stroke-linejoin:miter;stroke-miterlimit:4;stroke-opacity:1;stroke-dasharray:none"
           sodipodi:type="star"
           inkscape:export-filename="C:\Users\Chejo\Desktop\path3924.png"
           inkscape:export-xdpi="90"
           inkscape:export-ydpi="90" />
        <path
           sodipodi:type="star"
           style="fill:#ffffff;fill-opacity:1;stroke:#ffffff;stroke-width:0;stroke-linejoin:miter;stroke-miterlimit:4;stroke-opacity:1;stroke-dasharray:none"
           id="path3037"
           sodipodi:sides="6"
           sodipodi:cx="277.14285"
           sodipodi:cy="313.31458"
           sodipodi:r1="61.086163"
           sodipodi:r2="52.902168"
           sodipodi:arg1="1.0471976"
           sodipodi:arg2="1.5707963"
           inkscape:flatsided="true"
           inkscape:rounded="0"
           inkscape:randomized="0"
           d="m 307.68593,366.21675 -61.08616,-10e-6 -30.54308,-52.90217 30.54308,-52.90216 61.08617,0 30.54308,52.90217 z"
           transform="matrix(0.56793563,0,0,0.56793563,133.27276,-8.7928117)"
           inkscape:export-filename="C:\Users\Chejo\Desktop\path3924.png"
           inkscape:export-xdpi="90"
           inkscape:export-ydpi="90" />
      </g>
      <g
         transform="translate(-246.46465,648.00876)"
         id="g3035">
        <path
           style="fill:#ffffff;fill-opacity:1;stroke:#ffffff;stroke-width:0;stroke-linejoin:miter;stroke-miterlimit:4;stroke-opacity:1;stroke-dasharray:none"
           d="m 528.15792,171.96163 -17.34375,30.03125 17.34375,30.0625 34.6875,0 17.34375,-30.0625 -17.34375,-30.03125 -34.6875,0 z m 2.375,4.125 29.9375,0 14.96875,25.90625 -14.96875,25.9375 -29.9375,0 -14.96875,-25.9375 14.96875,-25.90625 z"
           id="path3021"
           inkscape:connector-curvature="0"
           inkscape:export-filename="C:\Users\Chejo\Desktop\path3924.png"
           inkscape:export-xdpi="90"
           inkscape:export-ydpi="90" />
        <path
           id="path3042"
           d="m 528.15792,108.15212 -17.34375,30.03124 17.34375,30.0625 34.6875,0 17.34375,-30.0625 -17.34375,-30.03124 -34.6875,0 z m 2.375,4.125 29.9375,0 14.96875,25.90624 -14.96875,25.9375 -29.9375,0 -14.96875,-25.9375 14.96875,-25.90624 z"
           style="fill:#ffffff;fill-opacity:1;stroke:#ffffff;stroke-width:0;stroke-linejoin:miter;stroke-miterlimit:4;stroke-opacity:1;stroke-dasharray:none"
           inkscape:connector-curvature="0"
           inkscape:export-filename="C:\Users\Chejo\Desktop\path3924.png"
           inkscape:export-xdpi="90"
           inkscape:export-ydpi="90" />
        <path
           inkscape:connector-curvature="0"
           style="fill:#ffffff;fill-opacity:1;stroke:#ffffff;stroke-width:0;stroke-linejoin:miter;stroke-miterlimit:4;stroke-opacity:1;stroke-dasharray:none"
           d="m 582.44363,140.05685 -17.34375,30.03125 17.34375,30.0625 34.6875,0 17.34375,-30.0625 -17.34375,-30.03125 -34.6875,0 z m 2.375,4.125 29.9375,0 14.96875,25.90625 -14.96875,25.9375 -29.9375,0 -14.96875,-25.9375 14.96875,-25.90625 z"
           id="path3044"
           inkscape:export-filename="C:\Users\Chejo\Desktop\path3924.png"
           inkscape:export-xdpi="90"
           inkscape:export-ydpi="90" />
        <text
           xml:space="preserve"
           style="font-size:40px;font-style:normal;font-variant:normal;font-weight:bold;font-stretch:normal;line-height:125%;letter-spacing:0px;word-spacing:0px;fill:#ffffff;fill-opacity:1;stroke:none;font-family:Calibri;-inkscape-font-specification:Calibri Bold"
           x="527.62079"
           y="212.61398"
           id="text3097"
           sodipodi:linespacing="125%"
           inkscape:export-filename="C:\Users\Chejo\Desktop\path3924.png"
           inkscape:export-xdpi="90"
           inkscape:export-ydpi="90"><tspan
             sodipodi:role="line"
             id="tspan3099"
             x="527.62079"
             y="212.61398">@</tspan></text>
        <g
           id="g3876"
           transform="matrix(0.45456821,0,0,0.45456821,438.59585,7.6324077)"
           inkscape:export-filename="C:\Users\Chejo\Desktop\path3924.png"
           inkscape:export-xdpi="90"
           inkscape:export-ydpi="90">
          <rect
             ry="19.053751"
             y="244.95952"
             x="216.12727"
             height="52.397816"
             width="38.107502"
             id="rect3869"
             style="fill:#ffffff;fill-opacity:1;stroke:#000000;stroke-width:0;stroke-linejoin:miter;stroke-miterlimit:4;stroke-opacity:1;stroke-dasharray:none" />
          <path
             inkscape:connector-curvature="0"
             id="path3871"
             d="m 235.18102,289.03594 c -18.08657,0 -32.75,14.63218 -32.75,32.71875 0,2.66796 0.3355,5.26714 0.9375,7.75 l 63.625,0 c 0.60233,-2.48348 0.9375,-5.08131 0.9375,-7.75 0,-18.08657 -14.66343,-32.71875 -32.75,-32.71875 z"
             style="fill:#ffffff;fill-opacity:1;stroke:#000000;stroke-width:0;stroke-linejoin:miter;stroke-miterlimit:4;stroke-opacity:1;stroke-dasharray:none" />
        </g>
        <path
           style="fill:#ffffff;fill-opacity:1;stroke:#ffffff;stroke-width:0;stroke-linejoin:miter;stroke-miterlimit:4;stroke-opacity:1;stroke-dasharray:none"
           d="m 592.85379,152.25788 c -2.39482,0 -4.32767,1.93285 -4.32767,4.32767 l 0,27.05185 c 0,2.39483 1.93284,4.31216 4.32767,4.31216 l 13.86717,0 c 2.39482,0 4.32768,-1.91733 4.32768,-4.31216 l 0,-27.05185 c 0,-2.39482 -1.93286,-4.32767 -4.32768,-4.32767 l -13.86717,0 z m -2.46631,3.19535 18.7998,0 0,27.25349 -18.7998,0 0,-27.25349 z m 9.3999,28.15315 c 0.84787,0 1.53562,0.68775 1.53562,1.53563 0,0.84787 -0.68774,1.53562 -1.53562,1.53562 -0.84789,0 -1.53562,-0.68775 -1.53562,-1.53562 0,-0.84788 0.68773,-1.53563 1.53562,-1.53563 z"
           id="rect3945"
           inkscape:connector-curvature="0"
           inkscape:export-filename="C:\Users\Chejo\Desktop\path3924.png"
           inkscape:export-xdpi="90"
           inkscape:export-ydpi="90" />
      </g>
      <text
         sodipodi:linespacing="125%"
         id="text3031"
         y="827.91223"
         x="128.28282"
         style="font-size:32px;font-style:normal;font-variant:normal;font-weight:normal;font-stretch:normal;line-height:125%;letter-spacing:0px;word-spacing:0px;fill:#ffffff;fill-opacity:1;stroke:none;font-family:Russo One;-inkscape-font-specification:Russo One"
         xml:space="preserve"><tspan
           style="font-size:28px;fill:#ffffff;fill-opacity:1"
           y="827.91223"
           x="128.28282"
           id="tspan3033"
           sodipodi:role="line">Devsocial</tspan></text>
    </g>
    <g
       transform="matrix(0.32283251,0,0,0.32283251,10.518689,939.49256)"
       id="g3853"
       inkscape:export-filename="C:\Users\Chejo\Documents\GitHub\ProyectoSoftware\PropuestaDiseño\Propuesta de logo I\icono40X40.png"
       inkscape:export-xdpi="90"
       inkscape:export-ydpi="90">
      <path
         style="fill:#ffffff;fill-opacity:1;stroke:#ffffff;stroke-width:0;stroke-linejoin:miter;stroke-miterlimit:4;stroke-opacity:1;stroke-dasharray:none"
         d="m 528.15792,171.96163 -17.34375,30.03125 17.34375,30.0625 34.6875,0 17.34375,-30.0625 -17.34375,-30.03125 -34.6875,0 z m 2.375,4.125 29.9375,0 14.96875,25.90625 -14.96875,25.9375 -29.9375,0 -14.96875,-25.9375 14.96875,-25.90625 z"
         id="path3855"
         inkscape:connector-curvature="0"
         inkscape:export-filename="C:\Users\Chejo\Desktop\path3924.png"
         inkscape:export-xdpi="90"
         inkscape:export-ydpi="90" />
      <path
         id="path3857"
         d="m 528.15792,108.15212 -17.34375,30.03124 17.34375,30.0625 34.6875,0 17.34375,-30.0625 -17.34375,-30.03124 -34.6875,0 z m 2.375,4.125 29.9375,0 14.96875,25.90624 -14.96875,25.9375 -29.9375,0 -14.96875,-25.9375 14.96875,-25.90624 z"
         style="fill:#ffffff;fill-opacity:1;stroke:#ffffff;stroke-width:0;stroke-linejoin:miter;stroke-miterlimit:4;stroke-opacity:1;stroke-dasharray:none"
         inkscape:connector-curvature="0"
         inkscape:export-filename="C:\Users\Chejo\Desktop\path3924.png"
         inkscape:export-xdpi="90"
         inkscape:export-ydpi="90" />
      <path
         inkscape:connector-curvature="0"
         style="fill:#ffffff;fill-opacity:1;stroke:#ffffff;stroke-width:0;stroke-linejoin:miter;stroke-miterlimit:4;stroke-opacity:1;stroke-dasharray:none"
         d="m 582.44363,140.05685 -17.34375,30.03125 17.34375,30.0625 34.6875,0 17.34375,-30.0625 -17.34375,-30.03125 -34.6875,0 z m 2.375,4.125 29.9375,0 14.96875,25.90625 -14.96875,25.9375 -29.9375,0 -14.96875,-25.9375 14.96875,-25.90625 z"
         id="path3859"
         inkscape:export-filename="C:\Users\Chejo\Desktop\path3924.png"
         inkscape:export-xdpi="90"
         inkscape:export-ydpi="90" />
      <text
         xml:space="preserve"
         style="font-size:40px;font-style:normal;font-variant:normal;font-weight:bold;font-stretch:normal;line-height:125%;letter-spacing:0px;word-spacing:0px;fill:#ffffff;fill-opacity:1;stroke:none;font-family:Calibri;-inkscape-font-specification:Calibri Bold"
         x="527.62079"
         y="212.61398"
         id="text3861"
         sodipodi:linespacing="125%"
         inkscape:export-filename="C:\Users\Chejo\Desktop\path3924.png"
         inkscape:export-xdpi="90"
         inkscape:export-ydpi="90"><tspan
           sodipodi:role="line"
           id="tspan3863"
           x="527.62079"
           y="212.61398">@</tspan></text>
      <g
         id="g3865"
         transform="matrix(0.45456821,0,0,0.45456821,438.59585,7.6324077)"
         inkscape:export-filename="C:\Users\Chejo\Desktop\path3924.png"
         inkscape:export-xdpi="90"
         inkscape:export-ydpi="90">
        <rect
           ry="19.053751"
           y="244.95952"
           x="216.12727"
           height="52.397816"
           width="38.107502"
           id="rect3867"
           style="fill:#ffffff;fill-opacity:1;stroke:#000000;stroke-width:0;stroke-linejoin:miter;stroke-miterlimit:4;stroke-opacity:1;stroke-dasharray:none" />
        <path
           inkscape:connector-curvature="0"
           id="path3869"
           d="m 235.18102,289.03594 c -18.08657,0 -32.75,14.63218 -32.75,32.71875 0,2.66796 0.3355,5.26714 0.9375,7.75 l 63.625,0 c 0.60233,-2.48348 0.9375,-5.08131 0.9375,-7.75 0,-18.08657 -14.66343,-32.71875 -32.75,-32.71875 z"
           style="fill:#ffffff;fill-opacity:1;stroke:#000000;stroke-width:0;stroke-linejoin:miter;stroke-miterlimit:4;stroke-opacity:1;stroke-dasharray:none" />
      </g>
      <path
         style="fill:#ffffff;fill-opacity:1;stroke:#ffffff;stroke-width:0;stroke-linejoin:miter;stroke-miterlimit:4;stroke-opacity:1;stroke-dasharray:none"
         d="m 592.85379,152.25788 c -2.39482,0 -4.32767,1.93285 -4.32767,4.32767 l 0,27.05185 c 0,2.39483 1.93284,4.31216 4.32767,4.31216 l 13.86717,0 c 2.39482,0 4.32768,-1.91733 4.32768,-4.31216 l 0,-27.05185 c 0,-2.39482 -1.93286,-4.32767 -4.32768,-4.32767 l -13.86717,0 z m -2.46631,3.19535 18.7998,0 0,27.25349 -18.7998,0 0,-27.25349 z m 9.3999,28.15315 c 0.84787,0 1.53562,0.68775 1.53562,1.53563 0,0.84787 -0.68774,1.53562 -1.53562,1.53562 -0.84789,0 -1.53562,-0.68775 -1.53562,-1.53562 0,-0.84788 0.68773,-1.53563 1.53562,-1.53563 z"
         id="path3872"
         inkscape:connector-curvature="0"
         inkscape:export-filename="C:\Users\Chejo\Desktop\path3924.png"
         inkscape:export-xdpi="90"
         inkscape:export-ydpi="90" />
    </g>
    <g
       id="g3906"
       transform="matrix(0.40354063,0,0,0.40354063,156.34758,546.91846)"
       inkscape:export-filename="C:\Users\Chejo\Documents\GitHub\ProyectoSoftware\PropuestaDiseño\Propuesta de logo I\icono153X50.png"
       inkscape:export-xdpi="90"
       inkscape:export-ydpi="90">
      <g
         id="g3874"
         transform="translate(-348.48485,798.45774)">
        <path
           inkscape:export-ydpi="90"
           inkscape:export-xdpi="90"
           inkscape:export-filename="C:\Users\Chejo\Desktop\path3924.png"
           transform="matrix(0.56793563,0,0,0.56793563,187.55847,23.111969)"
           d="m 307.68593,366.21675 -61.08616,-10e-6 -30.54308,-52.90217 30.54308,-52.90216 61.08617,0 30.54308,52.90217 z"
           inkscape:randomized="0"
           inkscape:rounded="0"
           inkscape:flatsided="true"
           sodipodi:arg2="1.5707963"
           sodipodi:arg1="1.0471976"
           sodipodi:r2="52.902168"
           sodipodi:r1="61.086163"
           sodipodi:cy="313.31458"
           sodipodi:cx="277.14285"
           sodipodi:sides="6"
           id="path3876"
           style="fill:#ffffff;fill-opacity:1;stroke:#ffffff;stroke-width:0;stroke-linejoin:miter;stroke-miterlimit:4;stroke-opacity:1;stroke-dasharray:none"
           sodipodi:type="star" />
        <path
           inkscape:export-ydpi="90"
           inkscape:export-xdpi="90"
           inkscape:export-filename="C:\Users\Chejo\Desktop\path3924.png"
           sodipodi:type="star"
           style="fill:#ffffff;fill-opacity:1;stroke:#ffffff;stroke-width:0;stroke-linejoin:miter;stroke-miterlimit:4;stroke-opacity:1;stroke-dasharray:none"
           id="path3878"
           sodipodi:sides="6"
           sodipodi:cx="277.14285"
           sodipodi:cy="313.31458"
           sodipodi:r1="61.086163"
           sodipodi:r2="52.902168"
           sodipodi:arg1="1.0471976"
           sodipodi:arg2="1.5707963"
           inkscape:flatsided="true"
           inkscape:rounded="0"
           inkscape:randomized="0"
           d="m 307.68593,366.21675 -61.08616,-10e-6 -30.54308,-52.90217 30.54308,-52.90216 61.08617,0 30.54308,52.90217 z"
           transform="matrix(0.56793563,0,0,0.56793563,187.55847,-40.697548)" />
        <path
           inkscape:export-ydpi="90"
           inkscape:export-xdpi="90"
           inkscape:export-filename="C:\Users\Chejo\Desktop\path3924.png"
           transform="matrix(0.56793563,0,0,0.56793563,133.27276,-8.7928117)"
           d="m 307.68593,366.21675 -61.08616,-10e-6 -30.54308,-52.90217 30.54308,-52.90216 61.08617,0 30.54308,52.90217 z"
           inkscape:randomized="0"
           inkscape:rounded="0"
           inkscape:flatsided="true"
           sodipodi:arg2="1.5707963"
           sodipodi:arg1="1.0471976"
           sodipodi:r2="52.902168"
           sodipodi:r1="61.086163"
           sodipodi:cy="313.31458"
           sodipodi:cx="277.14285"
           sodipodi:sides="6"
           id="path3880"
           style="fill:#ffffff;fill-opacity:1;stroke:#ffffff;stroke-width:0;stroke-linejoin:miter;stroke-miterlimit:4;stroke-opacity:1;stroke-dasharray:none"
           sodipodi:type="star" />
      </g>
      <g
         id="g3882"
         transform="translate(-348.48485,797.50371)">
        <path
           inkscape:export-ydpi="90"
           inkscape:export-xdpi="90"
           inkscape:export-filename="C:\Users\Chejo\Desktop\path3924.png"
           inkscape:connector-curvature="0"
           id="path3884"
           d="m 528.15792,171.96163 -17.34375,30.03125 17.34375,30.0625 34.6875,0 17.34375,-30.0625 -17.34375,-30.03125 -34.6875,0 z m 2.375,4.125 29.9375,0 14.96875,25.90625 -14.96875,25.9375 -29.9375,0 -14.96875,-25.9375 14.96875,-25.90625 z"
           style="fill:#ffffff;fill-opacity:1;stroke:#ffffff;stroke-width:0;stroke-linejoin:miter;stroke-miterlimit:4;stroke-opacity:1;stroke-dasharray:none" />
        <path
           inkscape:export-ydpi="90"
           inkscape:export-xdpi="90"
           inkscape:export-filename="C:\Users\Chejo\Desktop\path3924.png"
           inkscape:connector-curvature="0"
           style="fill:#ffffff;fill-opacity:1;stroke:#ffffff;stroke-width:0;stroke-linejoin:miter;stroke-miterlimit:4;stroke-opacity:1;stroke-dasharray:none"
           d="m 528.15792,108.15212 -17.34375,30.03124 17.34375,30.0625 34.6875,0 17.34375,-30.0625 -17.34375,-30.03124 -34.6875,0 z m 2.375,4.125 29.9375,0 14.96875,25.90624 -14.96875,25.9375 -29.9375,0 -14.96875,-25.9375 14.96875,-25.90624 z"
           id="path3886" />
        <path
           inkscape:export-ydpi="90"
           inkscape:export-xdpi="90"
           inkscape:export-filename="C:\Users\Chejo\Desktop\path3924.png"
           id="path3888"
           d="m 582.44363,140.05685 -17.34375,30.03125 17.34375,30.0625 34.6875,0 17.34375,-30.0625 -17.34375,-30.03125 -34.6875,0 z m 2.375,4.125 29.9375,0 14.96875,25.90625 -14.96875,25.9375 -29.9375,0 -14.96875,-25.9375 14.96875,-25.90625 z"
           style="fill:#ffffff;fill-opacity:1;stroke:#ffffff;stroke-width:0;stroke-linejoin:miter;stroke-miterlimit:4;stroke-opacity:1;stroke-dasharray:none"
           inkscape:connector-curvature="0" />
        <text
           inkscape:export-ydpi="90"
           inkscape:export-xdpi="90"
           inkscape:export-filename="C:\Users\Chejo\Desktop\path3924.png"
           sodipodi:linespacing="125%"
           id="text3890"
           y="212.61398"
           x="527.62079"
           style="font-size:40px;font-style:normal;font-variant:normal;font-weight:bold;font-stretch:normal;line-height:125%;letter-spacing:0px;word-spacing:0px;fill:#ffffff;fill-opacity:1;stroke:none;font-family:Calibri;-inkscape-font-specification:Calibri Bold"
           xml:space="preserve"><tspan
             y="212.61398"
             x="527.62079"
             id="tspan3892"
             sodipodi:role="line">@</tspan></text>
        <g
           inkscape:export-ydpi="90"
           inkscape:export-xdpi="90"
           inkscape:export-filename="C:\Users\Chejo\Desktop\path3924.png"
           transform="matrix(0.45456821,0,0,0.45456821,438.59585,7.6324077)"
           id="g3894">
          <rect
             style="fill:#ffffff;fill-opacity:1;stroke:#000000;stroke-width:0;stroke-linejoin:miter;stroke-miterlimit:4;stroke-opacity:1;stroke-dasharray:none"
             id="rect3896"
             width="38.107502"
             height="52.397816"
             x="216.12727"
             y="244.95952"
             ry="19.053751" />
          <path
             style="fill:#ffffff;fill-opacity:1;stroke:#000000;stroke-width:0;stroke-linejoin:miter;stroke-miterlimit:4;stroke-opacity:1;stroke-dasharray:none"
             d="m 235.18102,289.03594 c -18.08657,0 -32.75,14.63218 -32.75,32.71875 0,2.66796 0.3355,5.26714 0.9375,7.75 l 63.625,0 c 0.60233,-2.48348 0.9375,-5.08131 0.9375,-7.75 0,-18.08657 -14.66343,-32.71875 -32.75,-32.71875 z"
             id="path3898"
             inkscape:connector-curvature="0" />
        </g>
        <path
           inkscape:export-ydpi="90"
           inkscape:export-xdpi="90"
           inkscape:export-filename="C:\Users\Chejo\Desktop\path3924.png"
           inkscape:connector-curvature="0"
           id="path3900"
           d="m 592.85379,152.25788 c -2.39482,0 -4.32767,1.93285 -4.32767,4.32767 l 0,27.05185 c 0,2.39483 1.93284,4.31216 4.32767,4.31216 l 13.86717,0 c 2.39482,0 4.32768,-1.91733 4.32768,-4.31216 l 0,-27.05185 c 0,-2.39482 -1.93286,-4.32767 -4.32768,-4.32767 l -13.86717,0 z m -2.46631,3.19535 18.7998,0 0,27.25349 -18.7998,0 0,-27.25349 z m 9.3999,28.15315 c 0.84787,0 1.53562,0.68775 1.53562,1.53563 0,0.84787 -0.68774,1.53562 -1.53562,1.53562 -0.84789,0 -1.53562,-0.68775 -1.53562,-1.53562 0,-0.84788 0.68773,-1.53563 1.53562,-1.53563 z"
           style="fill:#ffffff;fill-opacity:1;stroke:#ffffff;stroke-width:0;stroke-linejoin:miter;stroke-miterlimit:4;stroke-opacity:1;stroke-dasharray:none" />
      </g>
      <text
         xml:space="preserve"
         style="font-size:32px;font-style:normal;font-variant:normal;font-weight:normal;font-stretch:normal;line-height:125%;letter-spacing:0px;word-spacing:0px;fill:#ffffff;fill-opacity:1;stroke:none;font-family:Russo One;-inkscape-font-specification:Russo One"
         x="26.262619"
         y="977.40717"
         id="text3902"
         sodipodi:linespacing="125%"><tspan
           sodipodi:role="line"
           id="tspan3904"
           x="26.262619"
           y="977.40717"
           style="font-size:28px;fill:#ffffff;fill-opacity:1">Devsocial</tspan></text>
    </g>
  </g>
</svg>
